<mxfile host="app.diagrams.net" modified="2024-04-15T18:09:46.013Z" agent="Mozilla/5.0 (Windows NT 10.0; Win64; x64) AppleWebKit/537.36 (KHTML, like Gecko) Chrome/123.0.0.0 Safari/537.36 Edg/123.0.0.0" etag="7Vzzefg6dIQVmDOnrNJc" version="24.2.5" type="device">
  <diagram name="Page-1" id="bR6pzGXzQ4tVox6fEBz0">
    <mxGraphModel dx="925" dy="540" grid="1" gridSize="10" guides="1" tooltips="1" connect="1" arrows="1" fold="1" page="1" pageScale="1" pageWidth="850" pageHeight="1100" math="0" shadow="0">
      <root>
        <mxCell id="0" />
        <mxCell id="1" parent="0" />
        <mxCell id="6Gvw15Bcua0NvGJzo-vV-63" style="edgeStyle=orthogonalEdgeStyle;rounded=0;orthogonalLoop=1;jettySize=auto;html=1;entryX=0.5;entryY=0;entryDx=0;entryDy=0;fontFamily=Times New Roman;fontSize=11;" parent="1" edge="1">
          <mxGeometry relative="1" as="geometry">
            <mxPoint x="631.1699999999998" y="500" as="targetPoint" />
          </mxGeometry>
        </mxCell>
        <mxCell id="RW9tVlY7NCJbLOYiDFET-52" style="edgeStyle=orthogonalEdgeStyle;rounded=0;orthogonalLoop=1;jettySize=auto;html=1;exitX=1;exitY=0.5;exitDx=0;exitDy=0;fontFamily=Times New Roman;fontSize=11;" parent="1" edge="1">
          <mxGeometry relative="1" as="geometry">
            <mxPoint x="620" y="680" as="sourcePoint" />
          </mxGeometry>
        </mxCell>
        <mxCell id="ccNJIbu-kGH7p9ZOHVRw-40" style="edgeStyle=orthogonalEdgeStyle;rounded=0;orthogonalLoop=1;jettySize=auto;html=1;entryX=0;entryY=0.5;entryDx=0;entryDy=0;fontFamily=Times New Roman;fontSize=11;" edge="1" parent="1" source="ccNJIbu-kGH7p9ZOHVRw-41" target="ccNJIbu-kGH7p9ZOHVRw-44">
          <mxGeometry relative="1" as="geometry" />
        </mxCell>
        <mxCell id="ccNJIbu-kGH7p9ZOHVRw-41" value="&lt;font style=&quot;font-size: 11px;&quot;&gt;Inicio&lt;/font&gt;" style="ellipse;whiteSpace=wrap;html=1;fontFamily=Times New Roman;fontSize=11;" vertex="1" parent="1">
          <mxGeometry x="193.5" y="339" width="85" height="40" as="geometry" />
        </mxCell>
        <mxCell id="ccNJIbu-kGH7p9ZOHVRw-42" value="&lt;font style=&quot;font-size: 11px;&quot;&gt;Fin&lt;/font&gt;" style="ellipse;whiteSpace=wrap;html=1;fontFamily=Times New Roman;fontSize=11;" vertex="1" parent="1">
          <mxGeometry x="571.5" y="721" width="85" height="40" as="geometry" />
        </mxCell>
        <mxCell id="ccNJIbu-kGH7p9ZOHVRw-114" style="edgeStyle=orthogonalEdgeStyle;rounded=0;orthogonalLoop=1;jettySize=auto;html=1;entryX=0;entryY=0.5;entryDx=0;entryDy=0;" edge="1" parent="1" source="ccNJIbu-kGH7p9ZOHVRw-44" target="ccNJIbu-kGH7p9ZOHVRw-48">
          <mxGeometry relative="1" as="geometry" />
        </mxCell>
        <mxCell id="ccNJIbu-kGH7p9ZOHVRw-44" value="&lt;div style=&quot;font-size: 11px;&quot;&gt;&lt;span style=&quot;background-color: initial; font-size: 11px;&quot;&gt;&lt;font style=&quot;font-size: 11px;&quot;&gt;Ingresa la secuencia del&lt;br style=&quot;font-size: 11px;&quot;&gt;&amp;nbsp;virus del VIH del simio&lt;/font&gt;&lt;/span&gt;&lt;/div&gt;" style="shape=parallelogram;perimeter=parallelogramPerimeter;whiteSpace=wrap;html=1;fixedSize=1;align=center;fontFamily=Times New Roman;fontSize=11;" vertex="1" parent="1">
          <mxGeometry x="328" y="339" width="137" height="40" as="geometry" />
        </mxCell>
        <mxCell id="ccNJIbu-kGH7p9ZOHVRw-118" style="edgeStyle=orthogonalEdgeStyle;rounded=0;orthogonalLoop=1;jettySize=auto;html=1;entryX=1;entryY=0.5;entryDx=0;entryDy=0;" edge="1" parent="1" source="ccNJIbu-kGH7p9ZOHVRw-46" target="ccNJIbu-kGH7p9ZOHVRw-63">
          <mxGeometry relative="1" as="geometry" />
        </mxCell>
        <mxCell id="ccNJIbu-kGH7p9ZOHVRw-46" value="&lt;font style=&quot;font-size: 11px;&quot;&gt;Genera una lista de &quot;n&quot; secuencias mutadas&lt;/font&gt;" style="rounded=0;whiteSpace=wrap;html=1;fontFamily=Times New Roman;fontSize=11;" vertex="1" parent="1">
          <mxGeometry x="507.5" y="415" width="130" height="40" as="geometry" />
        </mxCell>
        <mxCell id="ccNJIbu-kGH7p9ZOHVRw-115" style="edgeStyle=orthogonalEdgeStyle;rounded=0;orthogonalLoop=1;jettySize=auto;html=1;" edge="1" parent="1" source="ccNJIbu-kGH7p9ZOHVRw-48" target="ccNJIbu-kGH7p9ZOHVRw-46">
          <mxGeometry relative="1" as="geometry" />
        </mxCell>
        <mxCell id="ccNJIbu-kGH7p9ZOHVRw-48" value="&lt;div style=&quot;font-size: 11px;&quot;&gt;&lt;font style=&quot;font-size: 11px;&quot;&gt;Ingresa la cantidad&lt;br style=&quot;font-size: 11px;&quot;&gt;&amp;nbsp;de secuencias a generar&lt;/font&gt;&lt;/div&gt;" style="shape=parallelogram;perimeter=parallelogramPerimeter;whiteSpace=wrap;html=1;fixedSize=1;align=center;fontFamily=Times New Roman;fontSize=11;" vertex="1" parent="1">
          <mxGeometry x="504" y="339" width="137" height="40" as="geometry" />
        </mxCell>
        <mxCell id="ccNJIbu-kGH7p9ZOHVRw-143" style="edgeStyle=orthogonalEdgeStyle;rounded=0;orthogonalLoop=1;jettySize=auto;html=1;" edge="1" parent="1" source="ccNJIbu-kGH7p9ZOHVRw-51" target="ccNJIbu-kGH7p9ZOHVRw-134">
          <mxGeometry relative="1" as="geometry" />
        </mxCell>
        <mxCell id="ccNJIbu-kGH7p9ZOHVRw-144" style="edgeStyle=orthogonalEdgeStyle;rounded=0;orthogonalLoop=1;jettySize=auto;html=1;entryX=0;entryY=0.5;entryDx=0;entryDy=0;" edge="1" parent="1" source="ccNJIbu-kGH7p9ZOHVRw-51" target="ccNJIbu-kGH7p9ZOHVRw-135">
          <mxGeometry relative="1" as="geometry" />
        </mxCell>
        <mxCell id="ccNJIbu-kGH7p9ZOHVRw-51" value="&lt;font style=&quot;font-size: 11px;&quot;&gt;¿La cantidad de secuencias de la lista es par?&lt;/font&gt;" style="rhombus;whiteSpace=wrap;html=1;fontFamily=Times New Roman;fontSize=11;" vertex="1" parent="1">
          <mxGeometry x="390" y="491" width="80" height="80" as="geometry" />
        </mxCell>
        <mxCell id="ccNJIbu-kGH7p9ZOHVRw-52" style="edgeStyle=orthogonalEdgeStyle;rounded=0;orthogonalLoop=1;jettySize=auto;html=1;exitX=1;exitY=0.5;exitDx=0;exitDy=0;fontFamily=Times New Roman;fontSize=11;" edge="1" parent="1">
          <mxGeometry relative="1" as="geometry">
            <mxPoint x="620" y="680" as="sourcePoint" />
          </mxGeometry>
        </mxCell>
        <mxCell id="ccNJIbu-kGH7p9ZOHVRw-60" value="no" style="text;html=1;align=center;verticalAlign=middle;whiteSpace=wrap;rounded=0;fontFamily=Times New Roman;fontSize=11;" vertex="1" parent="1">
          <mxGeometry x="448" y="507" width="63" height="30" as="geometry" />
        </mxCell>
        <mxCell id="ccNJIbu-kGH7p9ZOHVRw-61" value="si" style="text;html=1;align=center;verticalAlign=middle;whiteSpace=wrap;rounded=0;fontFamily=Times New Roman;fontSize=11;" vertex="1" parent="1">
          <mxGeometry x="351" y="507" width="60" height="30" as="geometry" />
        </mxCell>
        <mxCell id="ccNJIbu-kGH7p9ZOHVRw-62" style="edgeStyle=orthogonalEdgeStyle;rounded=0;orthogonalLoop=1;jettySize=auto;html=1;entryX=0.5;entryY=0;entryDx=0;entryDy=0;" edge="1" parent="1" source="ccNJIbu-kGH7p9ZOHVRw-63" target="ccNJIbu-kGH7p9ZOHVRw-51">
          <mxGeometry relative="1" as="geometry" />
        </mxCell>
        <mxCell id="ccNJIbu-kGH7p9ZOHVRw-63" value="" style="ellipse;whiteSpace=wrap;html=1;aspect=fixed;fontSize=11;fontFamily=Times New Roman;" vertex="1" parent="1">
          <mxGeometry x="410" y="415" width="40" height="40" as="geometry" />
        </mxCell>
        <mxCell id="ccNJIbu-kGH7p9ZOHVRw-64" value="Proceso de mutación utilizando el MSS" style="text;html=1;align=center;verticalAlign=middle;whiteSpace=wrap;rounded=0;fontFamily=Times New Roman;fontSize=11;" vertex="1" parent="1">
          <mxGeometry x="302" y="420" width="110" height="30" as="geometry" />
        </mxCell>
        <mxCell id="ccNJIbu-kGH7p9ZOHVRw-130" style="edgeStyle=orthogonalEdgeStyle;rounded=0;orthogonalLoop=1;jettySize=auto;html=1;entryX=0.5;entryY=1;entryDx=0;entryDy=0;" edge="1" parent="1" source="ccNJIbu-kGH7p9ZOHVRw-75" target="ccNJIbu-kGH7p9ZOHVRw-119">
          <mxGeometry relative="1" as="geometry">
            <Array as="points">
              <mxPoint x="236" y="741" />
            </Array>
          </mxGeometry>
        </mxCell>
        <mxCell id="ccNJIbu-kGH7p9ZOHVRw-75" value="Selecciona el siguiente par de secuencias de la lista" style="rounded=0;whiteSpace=wrap;html=1;fontFamily=Times New Roman;fontSize=11;" vertex="1" parent="1">
          <mxGeometry x="300" y="721" width="130" height="40" as="geometry" />
        </mxCell>
        <mxCell id="ccNJIbu-kGH7p9ZOHVRw-76" value="no" style="text;html=1;align=center;verticalAlign=middle;whiteSpace=wrap;rounded=0;fontFamily=Times New Roman;fontSize=11;" vertex="1" parent="1">
          <mxGeometry x="447" y="677" width="63" height="30" as="geometry" />
        </mxCell>
        <mxCell id="ccNJIbu-kGH7p9ZOHVRw-77" value="si" style="text;html=1;align=center;verticalAlign=middle;whiteSpace=wrap;rounded=0;fontFamily=Times New Roman;fontSize=11;" vertex="1" parent="1">
          <mxGeometry x="486" y="624" width="60" height="30" as="geometry" />
        </mxCell>
        <mxCell id="ccNJIbu-kGH7p9ZOHVRw-78" value="Proceso de&amp;nbsp;&lt;div&gt;cruzamiento de genes&lt;/div&gt;" style="text;html=1;align=center;verticalAlign=middle;whiteSpace=wrap;rounded=0;fontFamily=Times New Roman;fontSize=11;" vertex="1" parent="1">
          <mxGeometry x="310" y="670" width="110" height="30" as="geometry" />
        </mxCell>
        <mxCell id="ccNJIbu-kGH7p9ZOHVRw-127" style="edgeStyle=orthogonalEdgeStyle;rounded=0;orthogonalLoop=1;jettySize=auto;html=1;entryX=0;entryY=0.5;entryDx=0;entryDy=0;" edge="1" parent="1" source="ccNJIbu-kGH7p9ZOHVRw-119" target="ccNJIbu-kGH7p9ZOHVRw-124">
          <mxGeometry relative="1" as="geometry" />
        </mxCell>
        <mxCell id="ccNJIbu-kGH7p9ZOHVRw-119" value="Realiza el cruzamiento de genes entre las dos secuencias" style="rounded=0;whiteSpace=wrap;html=1;fontFamily=Times New Roman;fontSize=11;" vertex="1" parent="1">
          <mxGeometry x="171" y="627" width="130" height="40" as="geometry" />
        </mxCell>
        <mxCell id="ccNJIbu-kGH7p9ZOHVRw-122" style="edgeStyle=orthogonalEdgeStyle;rounded=0;orthogonalLoop=1;jettySize=auto;html=1;entryX=0.5;entryY=0;entryDx=0;entryDy=0;" edge="1" parent="1" source="ccNJIbu-kGH7p9ZOHVRw-120" target="ccNJIbu-kGH7p9ZOHVRw-42">
          <mxGeometry relative="1" as="geometry" />
        </mxCell>
        <mxCell id="ccNJIbu-kGH7p9ZOHVRw-120" value="Retorna la lista de las secuencias generadas" style="rounded=0;whiteSpace=wrap;html=1;fontFamily=Times New Roman;fontSize=11;" vertex="1" parent="1">
          <mxGeometry x="549" y="627" width="130" height="40" as="geometry" />
        </mxCell>
        <mxCell id="ccNJIbu-kGH7p9ZOHVRw-128" style="edgeStyle=orthogonalEdgeStyle;rounded=0;orthogonalLoop=1;jettySize=auto;html=1;entryX=0;entryY=0.5;entryDx=0;entryDy=0;" edge="1" parent="1" source="ccNJIbu-kGH7p9ZOHVRw-124" target="ccNJIbu-kGH7p9ZOHVRw-125">
          <mxGeometry relative="1" as="geometry" />
        </mxCell>
        <mxCell id="ccNJIbu-kGH7p9ZOHVRw-124" value="" style="ellipse;whiteSpace=wrap;html=1;aspect=fixed;fontSize=11;fontFamily=Times New Roman;" vertex="1" parent="1">
          <mxGeometry x="345" y="627" width="40" height="40" as="geometry" />
        </mxCell>
        <mxCell id="ccNJIbu-kGH7p9ZOHVRw-129" style="edgeStyle=orthogonalEdgeStyle;rounded=0;orthogonalLoop=1;jettySize=auto;html=1;entryX=0;entryY=0.5;entryDx=0;entryDy=0;" edge="1" parent="1" source="ccNJIbu-kGH7p9ZOHVRw-125" target="ccNJIbu-kGH7p9ZOHVRw-120">
          <mxGeometry relative="1" as="geometry" />
        </mxCell>
        <mxCell id="ccNJIbu-kGH7p9ZOHVRw-131" style="edgeStyle=orthogonalEdgeStyle;rounded=0;orthogonalLoop=1;jettySize=auto;html=1;entryX=1;entryY=0.5;entryDx=0;entryDy=0;" edge="1" parent="1" source="ccNJIbu-kGH7p9ZOHVRw-125" target="ccNJIbu-kGH7p9ZOHVRw-75">
          <mxGeometry relative="1" as="geometry" />
        </mxCell>
        <mxCell id="ccNJIbu-kGH7p9ZOHVRw-125" value="&lt;font style=&quot;font-size: 11px;&quot;&gt;¿Se ha recorrido toda la lista de secuencias?&lt;/font&gt;" style="rhombus;whiteSpace=wrap;html=1;fontFamily=Times New Roman;fontSize=11;" vertex="1" parent="1">
          <mxGeometry x="427.5" y="607" width="80" height="80" as="geometry" />
        </mxCell>
        <mxCell id="ccNJIbu-kGH7p9ZOHVRw-146" style="edgeStyle=orthogonalEdgeStyle;rounded=0;orthogonalLoop=1;jettySize=auto;html=1;entryX=0.5;entryY=0;entryDx=0;entryDy=0;" edge="1" parent="1" source="ccNJIbu-kGH7p9ZOHVRw-134" target="ccNJIbu-kGH7p9ZOHVRw-119">
          <mxGeometry relative="1" as="geometry" />
        </mxCell>
        <mxCell id="ccNJIbu-kGH7p9ZOHVRw-134" value="Selecciona el primer par de secuencias de la lista" style="rounded=0;whiteSpace=wrap;html=1;fontFamily=Times New Roman;fontSize=11;" vertex="1" parent="1">
          <mxGeometry x="171" y="511" width="130" height="40" as="geometry" />
        </mxCell>
        <mxCell id="ccNJIbu-kGH7p9ZOHVRw-145" style="edgeStyle=orthogonalEdgeStyle;rounded=0;orthogonalLoop=1;jettySize=auto;html=1;entryX=0.75;entryY=1;entryDx=0;entryDy=0;" edge="1" parent="1" source="ccNJIbu-kGH7p9ZOHVRw-135" target="ccNJIbu-kGH7p9ZOHVRw-134">
          <mxGeometry relative="1" as="geometry">
            <Array as="points">
              <mxPoint x="601" y="589" />
              <mxPoint x="268" y="589" />
            </Array>
          </mxGeometry>
        </mxCell>
        <mxCell id="ccNJIbu-kGH7p9ZOHVRw-135" value="Se empareja la última secuencia con la primera secuencia" style="rounded=0;whiteSpace=wrap;html=1;fontFamily=Times New Roman;fontSize=11;" vertex="1" parent="1">
          <mxGeometry x="535.9" y="511" width="130" height="40" as="geometry" />
        </mxCell>
      </root>
    </mxGraphModel>
  </diagram>
</mxfile>
